<svg xmlns="http://www.w3.org/2000/svg" xmlns:xlink="http://www.w3.org/1999/xlink" version="1.1" id="Layer_1" x="0px" y="0px" width="100px" height="100px" viewBox="0 0 100 100" enable-background="new 0 0 100 100" xml:space="preserve">
<path d="M78.734,17.085C68.363,12.286,54.797,16.803,50,27.149c-4.798-10.345-18.362-14.867-28.731-10.064  c-11.044,5.125-16.327,18.21-7.602,33.649C19.86,61.717,30.842,69.992,50,84.836c19.159-14.843,30.144-23.123,36.336-34.101  C95.057,35.295,89.776,22.21,78.734,17.085z M28.598,40.6c-0.52,0.596-1.421,0.656-2.015,0.134c-0.592-0.52-0.652-1.421-0.134-2.013  l4.159-4.746c0.271-0.312,0.612-0.492,1.081-0.487c0.416,0.004,0.807,0.185,1.077,0.504l4.044,4.744  c0.513,0.599,0.441,1.5-0.159,2.013c-0.27,0.229-0.598,0.34-0.927,0.34c-0.402,0-0.804-0.169-1.086-0.501l-2.971-3.489L28.598,40.6z   M50.001,61.475c-8.44,0-15.197-4.069-18.098-9.802h36.188C65.195,57.406,58.432,61.475,50.001,61.475z M73.401,40.748  c-0.271,0.229-0.599,0.34-0.927,0.34c-0.402,0-0.804-0.169-1.086-0.501l-2.972-3.489L65.348,40.6  c-0.52,0.596-1.421,0.656-2.015,0.134c-0.592-0.52-0.652-1.421-0.134-2.013l4.16-4.746c0.27-0.312,0.612-0.492,1.081-0.487  c0.416,0.004,0.806,0.185,1.077,0.504l4.044,4.744C74.074,39.333,74.002,40.235,73.401,40.748z"/>
</svg>