<svg xmlns="http://www.w3.org/2000/svg" xmlns:xlink="http://www.w3.org/1999/xlink" version="1.1" x="0px" y="0px" width="100px" height="100px" viewBox="0 0 100 100" enable-background="new 0 0 100 100" xml:space="preserve">
<g id="Capa_1" display="none">
	
		</g>
<g id="Capa_2">
	<path d="M50,96.834C24.176,96.834,3.167,75.824,3.167,50S24.176,3.167,50,3.167S96.834,24.176,96.834,50S75.824,96.834,50,96.834z    M50,7.167C26.381,7.167,7.167,26.381,7.167,50c0,23.619,19.215,42.834,42.833,42.834c23.619,0,42.834-19.215,42.834-42.834   C92.834,26.381,73.619,7.167,50,7.167z"/>
</g>
<g id="Capa_3">
	<path d="M71.32,61.493c-0.006-0.058-0.009-0.116-0.015-0.175c-0.068-0.658-0.17-1.3-0.295-1.928   c-0.017-0.084-0.031-0.167-0.049-0.25c-0.127-0.598-0.277-1.182-0.451-1.754c-0.039-0.13-0.08-0.259-0.121-0.388   c-0.177-0.547-0.373-1.083-0.589-1.609c-0.046-0.11-0.093-0.221-0.141-0.331C66.114,46.787,58.027,40.949,53,33.25   c-6.583-10.083-1.917-18.583-1.917-18.583c-13.084,10.25-22.507,32.083-22.507,48.9c0,11.832,9.592,21.425,21.424,21.425   s21.425-9.593,21.425-21.425C71.425,62.856,71.385,62.168,71.32,61.493z M66.938,62.906c-0.829,1.185-2.042,1.682-3.604,1.682   c-2.258,0-4.088-1.83-4.088-4.088c0-0.272,0.029-0.537,0.08-0.794c-0.001,0-0.001,0-0.002,0c0.001-0.003,0.002-0.005,0.003-0.008   c0.067-0.34,0.187-0.657,0.333-0.96c0.515-1.527,0.924-3.145,0.924-4.822c0-1.68-0.254-3.298-0.714-4.828   c4.324,1,6.193,3.817,7.552,7.413C68.208,58.584,68.031,61.344,66.938,62.906z"/>
</g>
</svg>